<svg width="160" height="160" viewBox="0 0 160 160" fill="none" xmlns="http://www.w3.org/2000/svg">
<path fill-rule="evenodd" clip-rule="evenodd" d="M2.82043 136.589C4.22637 117.848 20.0007 102.949 39.0854 102.949C58.1701 102.949 73.9442 117.848 75.3504 136.589C75.3782 136.937 75.3332 137.288 75.2185 137.618C75.1038 137.948 74.9218 138.251 74.684 138.508C74.4462 138.764 74.1577 138.968 73.837 139.107C73.5162 139.246 73.17 139.317 72.8204 139.316H5.35043C5.00083 139.317 4.6547 139.246 4.33395 139.107C4.0132 138.968 3.7248 138.764 3.487 138.508C3.2492 138.251 3.06718 137.948 2.95244 137.618C2.8377 137.288 2.79275 136.937 2.82043 136.589Z" fill="#FC685B"/>
<path fill-rule="evenodd" clip-rule="evenodd" d="M35.0273 103.178C36.3605 103.028 37.7139 102.949 39.0855 102.949C58.1705 102.949 73.9442 117.848 75.3505 136.589C75.3782 136.937 75.3333 137.288 75.2186 137.618C75.1039 137.948 74.9219 138.251 74.6841 138.508C74.4463 138.764 74.158 138.968 73.8372 139.107C73.5165 139.246 73.1704 139.317 72.8208 139.316H64.7045C65.0541 139.317 65.4002 139.246 65.721 139.107C66.0417 138.968 66.3301 138.764 66.5679 138.508C66.8056 138.251 66.9876 137.948 67.1023 137.618C67.217 137.288 67.2619 136.937 67.2342 136.589C65.9292 119.195 52.2461 105.112 35.0273 103.178Z" fill="#FB4737"/>
<path fill-rule="evenodd" clip-rule="evenodd" d="M33.7324 139.316H44.439L41.0418 125.455L39.0855 121.132L37.1296 125.455L33.7324 139.316Z" fill="#FFDA2D"/>
<path fill-rule="evenodd" clip-rule="evenodd" d="M33.7323 139.316H36.8573L40.2545 125.454H37.1295L33.7323 139.316ZM39.0854 111.639L46.3488 116.916L41.0416 125.454H37.1295L31.8223 116.916L39.0854 111.639Z" fill="#FFC700"/>
<path fill-rule="evenodd" clip-rule="evenodd" d="M39.0854 111.639L40.6479 112.774L34.9473 116.916L40.2545 125.454H37.1295L31.8223 116.916L39.0854 111.639Z" fill="#FDB800"/>
<path fill-rule="evenodd" clip-rule="evenodd" d="M47.9975 104.141C51.5352 105.018 54.9199 106.425 58.0372 108.314L50.1053 123.834L39.2969 114.097L47.9975 104.141Z" fill="#FB4737"/>
<path fill-rule="evenodd" clip-rule="evenodd" d="M55.2124 106.77C56.1762 107.243 57.1186 107.758 58.0368 108.314L50.1049 123.834L47.584 121.697L55.2124 106.77Z" fill="#FA2917"/>
<path fill-rule="evenodd" clip-rule="evenodd" d="M30.1338 104.071C26.5675 105.016 23.1519 106.418 20.1016 108.333L28.2853 123.723L39.2975 114.096L30.1338 104.071Z" fill="#FB4737"/>
<path fill-rule="evenodd" clip-rule="evenodd" d="M22.9963 106.696C22.0069 107.197 21.0409 107.744 20.1016 108.333L28.2853 123.723L30.8537 121.472L22.9963 106.696Z" fill="#FA2917"/>
<path fill-rule="evenodd" clip-rule="evenodd" d="M51.1083 105.062C44.1108 102.216 35.4523 102.32 27.3633 104.831L39.297 114.096L51.1083 105.062Z" fill="#EFF4F7"/>
<path fill-rule="evenodd" clip-rule="evenodd" d="M51.1083 105.062C44.1108 102.216 35.4523 102.32 27.3633 104.831L30.3448 107.146C36.4692 105.714 42.7592 105.664 48.2848 107.222L51.1086 105.062H51.1083Z" fill="#DEE8EE"/>
<path fill-rule="evenodd" clip-rule="evenodd" d="M39.085 101.051C49.9106 101.051 58.74 92.2216 58.74 81.396C58.74 70.5703 49.9106 61.741 39.085 61.741C28.2594 61.741 19.4297 70.5703 19.4297 81.396C19.4297 92.2216 28.2591 101.051 39.085 101.051Z" fill="#FFD6BD"/>
<path fill-rule="evenodd" clip-rule="evenodd" d="M24.1816 94.2087C27.7863 98.3978 33.126 101.051 39.086 101.051C49.9413 101.051 58.741 92.2512 58.741 81.3959C58.741 74.4243 55.111 68.3012 49.6385 64.8115C52.5988 68.2525 54.3891 72.729 54.3891 77.6243C54.3891 88.4793 45.5891 97.2793 34.7338 97.2793C30.8504 97.2793 27.2301 96.1528 24.1816 94.2087Z" fill="#F9C6AA"/>
<path fill-rule="evenodd" clip-rule="evenodd" d="M103.349 111.528C124.977 111.528 142.616 93.8883 142.616 72.2608C142.616 50.6333 124.977 32.9937 103.349 32.9937C81.7217 32.9937 64.082 50.633 64.082 72.2608C64.082 93.8887 81.7217 111.528 103.349 111.528Z" fill="#64B5F6"/>
<path fill-rule="evenodd" clip-rule="evenodd" d="M129.424 42.9031C137.517 50.0959 142.617 60.5818 142.617 72.2609C142.617 93.9474 125.037 111.528 103.35 111.528C91.6709 111.528 81.185 106.427 73.9922 98.3346C80.9269 104.498 90.0584 108.244 100.066 108.244C121.753 108.244 139.333 90.6637 139.333 68.9768C139.333 58.969 135.587 49.8378 129.424 42.9031Z" fill="#42A5F5"/>
<path fill-rule="evenodd" clip-rule="evenodd" d="M135.452 49.6438C113.502 47.1526 111.498 53.8904 116.087 60.277C120.408 66.2917 124.614 64.8338 126.901 70.2245C129.985 77.4948 112.206 79.7038 132.357 98.727C138.729 91.7463 142.616 82.4576 142.616 72.261C142.616 63.8398 139.964 56.0379 135.452 49.6438Z" fill="#72D561"/>
<path fill-rule="evenodd" clip-rule="evenodd" d="M135.453 49.6437C135.017 49.5944 134.593 49.55 134.173 49.5078C137.456 55.2463 139.333 61.8922 139.333 68.9772C139.333 79.1681 135.45 88.4516 129.084 95.4309C130.044 96.4706 131.129 97.5672 132.358 98.7272C138.73 91.7466 142.616 82.4578 142.616 72.2612C142.616 63.84 139.966 56.0381 135.453 49.6441L135.453 49.6437Z" fill="#42C345"/>
<path fill-rule="evenodd" clip-rule="evenodd" d="M98.931 52.3856C105.076 44.88 94.8757 36.6018 87.5991 36.2803C75.4535 41.6046 66.5198 52.8984 64.5098 66.45C74.5023 65.1331 72.8519 70.6093 82.536 76.2068C87.5066 79.08 83.3566 82.4106 86.921 87.0256C92.0607 93.1847 89.2076 97.2106 92.1823 100.11C93.5363 101.604 95.757 100.195 96.1732 98.5322C97.1898 93.4253 99.0066 95.9084 100.426 89.4931C100.375 78.4943 113.04 86.3662 105.473 76.0543C103.198 72.9543 102.034 69.544 98.8398 69.2381C92.1063 68.5925 92.8354 64.3947 86.7141 66.764C83.3913 68.05 81.7685 67.5 79.0907 63.1931C76.5979 59.1847 80.4763 56.819 84.6263 57.3453C85.2551 57.425 92.4107 59.2672 98.9316 52.3856H98.931Z" fill="#72D561"/>
<path fill-rule="evenodd" clip-rule="evenodd" d="M98.9313 52.3856C105.076 44.88 94.876 36.6018 87.5995 36.2803C82.6254 38.4609 78.1907 41.6431 74.5488 45.5712C77.7698 42.5814 81.4693 40.1528 85.4935 38.3865C92.6154 38.7012 102.535 46.6371 97.1932 54.0112C97.8054 53.5055 98.3859 52.9626 98.9313 52.3856ZM94.0566 100.678C95.027 100.434 95.9238 99.5287 96.1732 98.5325C97.1898 93.4256 99.0066 95.9087 100.426 89.4934C100.418 87.7596 100.726 86.4956 101.221 85.5546C99.6601 86.4081 98.3032 87.9846 98.3195 91.5996C96.9004 98.0153 95.0835 95.5322 94.067 100.639L94.0563 100.678H94.0566ZM105.752 82.5215C107.976 81.8234 109.266 81.2231 105.473 76.0546C103.198 72.9546 102.034 69.5443 98.8398 69.2384C92.1063 68.5928 92.8354 64.395 86.7141 66.7643C83.3913 68.0503 81.7685 67.5003 79.0907 63.1934C78.3088 61.9365 78.1538 60.8409 78.4373 59.9456C76.4063 60.8362 75.387 62.7306 76.9845 65.2996C79.6626 69.6065 81.2851 70.1568 84.6082 68.8706C90.7295 66.5015 90.0004 70.6993 96.7338 71.3446C99.9276 71.6509 101.092 75.0612 103.367 78.1612C104.914 80.2696 105.615 81.6171 105.752 82.5218L105.752 82.5215Z" fill="#42C345"/>
<path fill-rule="evenodd" clip-rule="evenodd" d="M110.344 104.955C110.758 104.42 111.296 103.993 111.911 103.712C111.825 103.189 111.782 102.66 111.782 102.131C111.782 96.7699 116.128 92.4243 121.489 92.4243C126.129 92.4243 130.008 95.6806 130.967 100.032L131.003 100.037C132.675 97.1128 135.825 95.1415 139.435 95.1415C144.796 95.1415 149.142 99.4874 149.142 104.848L149.141 104.954H150.173C154.031 104.954 157.189 108.112 157.189 111.97C157.189 115.829 154.031 118.986 150.173 118.986H140.878C140.348 121.162 138.387 122.777 136.048 122.777C135.694 122.777 135.341 122.74 134.996 122.665C133.858 126.762 130.102 129.77 125.642 129.77C121.349 129.77 117.707 126.982 116.427 123.119C115.597 123.695 114.61 124.002 113.6 124.001C110.854 124.001 108.629 121.775 108.629 119.029V118.987H99.6195C95.7607 118.987 92.6035 115.829 92.6035 111.971C92.6035 108.112 95.7607 104.955 99.6195 104.955H110.344Z" fill="#B1E8FE"/>
<path fill-rule="evenodd" clip-rule="evenodd" d="M111.956 100.292C112.017 99.9731 112.094 99.6603 112.185 99.3538C112.207 99.6141 112.239 99.8716 112.28 100.126C112.169 100.177 112.061 100.232 111.956 100.292ZM157.101 110.869C157.158 111.228 157.189 111.596 157.189 111.971C157.189 115.829 154.031 118.987 150.173 118.987H140.878C140.348 121.162 138.387 122.777 136.048 122.777C135.694 122.777 135.341 122.74 134.996 122.666C133.858 126.763 130.102 129.77 125.642 129.77C121.349 129.77 117.707 126.983 116.427 123.119C115.597 123.695 114.61 124.003 113.6 124.001C110.854 124.001 108.629 121.775 108.629 119.03V118.987H99.6194C95.7607 118.987 92.6035 115.83 92.6035 111.971C92.6035 111.097 92.766 110.26 93.061 109.486C93.5935 112.827 96.5054 115.401 99.9898 115.401H108.999V115.444C108.999 118.189 111.224 120.415 113.97 120.415C115.02 120.415 115.995 120.089 116.797 119.533C118.078 123.397 121.719 126.184 126.013 126.184C130.472 126.184 134.229 123.177 135.366 119.08C135.712 119.155 136.064 119.192 136.418 119.192C138.757 119.192 140.718 117.577 141.248 115.401H150.543C153.528 115.401 156.093 113.512 157.101 110.87L157.101 110.869Z" fill="#99E1FD"/>
<path fill-rule="evenodd" clip-rule="evenodd" d="M62.4787 31.7119C62.8429 31.241 63.316 30.8657 63.8574 30.6181C63.7819 30.1582 63.7439 29.693 63.744 29.2269C63.744 24.5088 67.5687 20.6841 72.2865 20.6841C76.3702 20.6841 79.7843 23.5497 80.6284 27.38L80.6602 27.3844C82.1318 24.8103 84.904 23.0756 88.0812 23.0756C92.7993 23.0756 96.6237 26.9003 96.6237 31.6185L96.623 31.7119H97.5305C100.926 31.7119 103.705 34.4903 103.705 37.8866C103.705 41.2828 100.927 44.0613 97.5305 44.0613H89.3502C88.8837 45.9756 87.1581 47.3972 85.0996 47.3972C84.7818 47.3972 84.4721 47.3635 84.1734 47.2991C83.1724 50.9047 79.8662 53.5516 75.9418 53.5516C72.1634 53.5516 68.9584 51.0985 67.8315 47.6981C67.1008 48.2048 66.2325 48.4757 65.3434 48.4744C62.9271 48.4744 60.9684 46.5153 60.9684 44.0991V44.0613H53.0399C49.644 44.0613 46.8652 41.2828 46.8652 37.8866C46.8652 34.4903 49.6437 31.7119 53.0399 31.7119H62.478H62.4787Z" fill="#B1E8FE"/>
<path fill-rule="evenodd" clip-rule="evenodd" d="M62.4803 31.7119C62.8445 31.241 63.3177 30.8657 63.8591 30.6181C63.7835 30.1582 63.7456 29.693 63.7456 29.2269C63.7456 24.5088 67.5703 20.6841 72.2881 20.6841C75.9212 20.6841 79.0241 22.9522 80.2591 26.15C78.8782 25.255 77.2672 24.7799 75.6216 24.7825C70.9037 24.7825 67.0791 28.6072 67.0791 33.3253C67.0791 33.7991 67.1181 34.2638 67.1925 34.7166C66.6511 34.9641 66.178 35.3395 65.8137 35.8103H56.3756C52.9797 35.8103 50.2009 38.5888 50.2009 41.985C50.2009 42.4906 50.2631 42.9825 50.3791 43.4538C48.3062 42.4547 46.8672 40.331 46.8672 37.8869C46.8672 34.4906 49.6456 31.7122 53.0419 31.7122H62.48L62.4803 31.7119ZM81.0672 26.7438C82.6103 24.5269 85.1769 23.0756 88.0828 23.0756C91.7159 23.0756 94.8191 25.3438 96.0541 28.5416C94.6731 27.6466 93.0622 27.1715 91.4166 27.1741C88.2391 27.1741 85.4672 28.9088 83.9956 31.4828L83.9637 31.4785C83.5523 29.6218 82.5331 27.9556 81.0675 26.7438H81.0672ZM99.0631 31.9053C101.256 32.47 102.987 34.2169 103.529 36.4178C102.699 36.0173 101.788 35.8096 100.866 35.8103H99.9588L99.9594 35.7169C99.9594 34.3472 99.6366 33.0528 99.0634 31.9056L99.0631 31.9053ZM71.3072 52.1841C71.1853 52.1053 71.0659 52.0231 70.9484 51.9381C71.0228 51.8928 71.0959 51.8453 71.1675 51.796C71.2109 51.9269 71.2578 52.0563 71.3072 52.1841ZM64.3072 48.3497C64.1051 48.3004 63.9068 48.2368 63.7137 48.1594H64.3044V48.1972C64.3044 48.2481 64.3053 48.2991 64.3072 48.35V48.3497Z" fill="#99E1FD"/>
</svg>
