<svg width="12" height="8" viewBox="0 0 12 8" fill="none" xmlns="http://www.w3.org/2000/svg">
<path fill-rule="evenodd" clip-rule="evenodd" d="M9.99984 0C10.7362 0 11.3332 0.596953 11.3332 1.33333V1.33757C11.3332 2.07395 10.7362 2.67087 9.99984 2.67087C9.26344 2.67087 8.6665 2.07395 8.6665 1.33757V1.33333C8.6665 0.596953 9.26344 0 9.99984 0ZM9.99984 5.32913C10.7362 5.32913 11.3332 5.92607 11.3332 6.66247V6.66667C11.3332 7.40307 10.7362 8 9.99984 8C9.26344 8 8.6665 7.40307 8.6665 6.66667V6.66247C8.6665 5.92607 9.26344 5.32913 9.99984 5.32913ZM5.99984 0C6.73624 0 7.33317 0.596953 7.33317 1.33333V1.33757C7.33317 2.07395 6.73624 2.67087 5.99984 2.67087C5.26344 2.67087 4.6665 2.07395 4.6665 1.33757V1.33333C4.6665 0.596953 5.26344 0 5.99984 0ZM5.99984 5.32913C6.73624 5.32913 7.33317 5.92607 7.33317 6.66247V6.66667C7.33317 7.40307 6.73624 8 5.99984 8C5.26344 8 4.6665 7.40307 4.6665 6.66667V6.66247C4.6665 5.92607 5.26344 5.32913 5.99984 5.32913ZM1.99984 0C2.73622 0 3.33317 0.596953 3.33317 1.33333V1.33757C3.33317 2.07395 2.73622 2.67087 1.99984 2.67087C1.26346 2.67087 0.666504 2.07394 0.666504 1.33757V1.33333C0.666504 0.596953 1.26346 0 1.99984 0ZM1.99984 5.32913C2.73622 5.32913 3.33317 5.92607 3.33317 6.66247V6.66667C3.33317 7.40307 2.73622 8 1.99984 8C1.26346 8 0.666504 7.40307 0.666504 6.66667V6.66247C0.666504 5.92607 1.26346 5.32913 1.99984 5.32913Z" fill="white"/>
</svg>
