<svg width="16" height="16" viewBox="0 0 16 16" fill="none" xmlns="http://www.w3.org/2000/svg">
<path d="M10.9506 3.07006L11.6106 2.41006C12.1574 1.86331 13.0439 1.86331 13.5906 2.41006C14.1373 2.95682 14.1373 3.84329 13.5906 4.39005L12.9306 5.05004M10.9506 3.07006L6.51104 7.5096C6.1727 7.848 5.93268 8.27186 5.81663 8.73606L5.33398 10.6667L7.26458 10.184C7.72878 10.068 8.15265 9.82793 8.49105 9.4896L12.9306 5.05004M10.9506 3.07006L12.9306 5.05004" stroke="#056AA4" stroke-width="1.2" stroke-linejoin="round"/>
<path d="M12.6666 8.99992C12.6666 11.1916 12.6666 12.2874 12.0613 13.025C11.9505 13.16 11.8267 13.2838 11.6917 13.3946C10.9541 13.9999 9.85827 13.9999 7.6666 13.9999H7.33333C4.81917 13.9999 3.56211 13.9999 2.78106 13.2188C2.00002 12.4378 2 11.1807 2 8.66658V8.33325C2 6.1416 2 5.04578 2.60529 4.30821C2.71611 4.17319 2.83993 4.04937 2.97496 3.93855C3.71253 3.33325 4.80835 3.33325 7 3.33325" stroke="#056AA4" stroke-width="1.2" stroke-linecap="round" stroke-linejoin="round"/>
</svg>
