<svg width="54" height="54" viewBox="0 0 54 54" fill="none" xmlns="http://www.w3.org/2000/svg">
<rect width="54" height="54" rx="13" fill="white"/>
<g clip-path="url(#clip0_40000107_992)">
<path d="M37.2028 30.7285L31.8561 36.1245L31.8516 41.8499C33.0408 42.5682 33.9424 43.3644 34.781 44.4653L42.5339 44.4716L42.5408 36.1333L37.2028 30.7285Z" fill="#FF9C01"/>
<path d="M33.6094 34.3552L31.8561 36.1247L31.8516 41.8501C32.5138 42.2501 33.0867 42.6745 33.6094 43.162V34.3552Z" fill="#FF8103"/>
<path d="M21.0963 30.5577C20.8901 27.3467 18.9327 26.5822 17.0214 25.2061C15.1101 23.8301 14.422 22.2245 13.3518 19.5488C12.3376 17.0138 9.5293 16.9621 9.5293 19.0056V37.0501C13.9418 36.0139 18.5262 37.7815 21.0993 41.5338C21.0983 41.5325 21.0975 41.5309 21.0965 41.5295C22.6187 40.7297 24.3514 40.2761 26.1905 40.2761C26.491 35.634 21.3026 33.7687 21.0963 30.5577Z" fill="#8C614B"/>
<path d="M38.2496 39.0273L36.1435 39.0256C35.6451 39.0251 35.2405 39.4288 35.2401 39.9274L35.2363 44.4659L39.1477 44.4691L39.1514 39.9306C39.152 39.432 38.7482 39.0276 38.2496 39.0273Z" fill="#5A6266"/>
<path d="M36.9942 44.4657L36.9979 39.9272C36.9984 39.4379 37.3882 39.0409 37.874 39.0268L36.1435 39.0254C35.6451 39.0249 35.2405 39.4286 35.2401 39.9271L35.2363 44.4656L39.1477 44.4688V44.4674L36.9942 44.4657Z" fill="#4B5256"/>
<path d="M43.2306 36.9725L37.203 30.8693L31.1654 36.9625C30.8833 37.2472 30.4235 37.2494 30.1388 36.9672C29.8541 36.685 29.8519 36.2254 30.1341 35.9406L36.6882 29.3263C36.9721 29.0399 37.4357 29.0392 37.7204 29.327L44.2634 35.9522C44.5452 36.2374 44.5423 36.697 44.2572 36.9789C43.972 37.2602 43.5124 37.258 43.2306 36.9725Z" fill="#8C614B"/>
<path d="M43.6364 36.3777L37.5122 30.1767C37.2343 29.8955 36.9867 30.0849 36.9133 30.1541L30.7568 36.3671C30.5341 36.5919 30.2076 36.6513 29.9297 36.5452C30.0072 37.1425 30.7399 37.3907 31.1644 36.9623L37.202 30.869L43.2296 36.9722C43.6534 37.4015 44.3873 37.1541 44.4651 36.5563C44.3246 36.6105 44.1713 36.6225 44.0241 36.5907C43.8769 36.559 43.7421 36.485 43.6364 36.3777Z" fill="#725346"/>
<path d="M21.0254 41.3887C21.6663 42.3226 22.1676 43.3599 22.4965 44.4715H34.9268C31.7311 40.2695 25.8161 38.8716 21.0254 41.3887Z" fill="#1C9B4F"/>
<path d="M22.898 40.6177C22.2513 40.8161 21.6244 41.0743 21.0254 41.3887C21.6663 42.3226 22.1676 43.3599 22.4965 44.4716H24.7402C24.3209 43.0852 23.6943 41.7892 22.898 40.6177Z" fill="#20894A"/>
<path d="M17.0248 21.4512L17.6989 23.1388C17.6989 23.1388 19.1521 24.2639 20.2771 23.631C21.4022 22.9982 20.8396 22.6465 21.2616 21.8028C21.7317 20.8626 19.9959 21.2403 19.8553 20.0449C19.7146 18.8495 16.3505 19.7637 17.0248 21.4512Z" fill="#8C614B"/>
<path d="M19.5975 23.1388L18.9233 21.4512C18.6273 20.7103 19.1099 20.1185 19.7562 19.7888C19.1798 19.0081 16.407 19.9047 17.0248 21.4512L17.6989 23.1388C17.6989 23.1388 19.1521 24.2638 20.2771 23.631C20.3077 23.6138 20.3364 23.5969 20.3645 23.5801C19.9134 23.3833 19.5975 23.1388 19.5975 23.1388Z" fill="#725346"/>
<path d="M26.7776 22.6487L25.6057 22.9954C25.6057 22.9954 24.7621 23.8987 25.116 24.6913C25.4699 25.4838 25.7403 25.129 26.2791 25.464C26.8795 25.837 26.7344 24.6513 27.5436 24.6314C28.3528 24.6115 27.9495 22.3021 26.7776 22.6487Z" fill="#8C614B"/>
<path d="M26.663 24.0231C26.4337 23.5097 26.7068 22.9501 26.9277 22.6194C26.8172 22.6317 26.9029 22.6114 25.6057 22.9951C25.6057 22.9951 24.7621 23.8984 25.116 24.6911C25.4699 25.4836 25.7403 25.1288 26.2791 25.4637C26.8541 25.821 26.7459 24.7492 27.4466 24.6404C27.1377 24.5685 26.9228 24.6049 26.663 24.0231Z" fill="#725346"/>
<path d="M26.423 29.0663L24.8447 29.5332C24.8447 29.5332 23.7085 30.7497 24.1852 31.8173C24.6618 32.8849 25.026 32.4068 25.7518 32.8581C26.5603 33.3606 26.3649 31.7636 27.4548 31.7367C28.5446 31.7098 28.0015 28.5994 26.423 29.0663Z" fill="#8C614B"/>
<path d="M26.0136 31.1073C25.6617 30.3192 26.1885 29.4504 26.4886 29.0493C26.4319 29.0628 26.5433 29.031 24.8449 29.5334C24.8449 29.5334 23.7087 30.7499 24.1854 31.8175C24.6621 32.8851 25.0262 32.407 25.752 32.8583C26.3996 33.2608 26.4037 32.3173 26.9393 31.9113C26.5901 31.8428 26.326 31.8069 26.0136 31.1073ZM11.2873 19.0057C11.2873 18.3715 11.5376 18.0086 11.8393 17.8014C11.3403 17.5429 11.0485 17.5143 10.7805 17.5466C10.3164 17.6095 9.5293 17.8815 9.5293 19.0057V37.0503C10.1072 36.915 10.6951 36.8268 11.2872 36.7866V19.0057H11.2873Z" fill="#725346"/>
<path d="M9.5293 36.9094V43.0956C9.5293 43.8555 10.1454 44.4717 10.9054 44.4717H22.5676C20.9391 38.9683 15.2667 35.5622 9.5293 36.9094Z" fill="#95B737"/>
<path d="M11.2872 43.0956V36.6458C10.6951 36.686 10.1072 36.7741 9.5293 36.9094V43.0956C9.5293 43.8555 10.1454 44.4717 10.9054 44.4717H12.6633C11.9033 44.4717 11.2872 43.8555 11.2872 43.0956Z" fill="#84A316"/>
<path d="M16.8712 27.7329C16.7377 27.6948 16.5945 27.7109 16.4728 27.7777C16.3511 27.8446 16.2607 27.9567 16.2211 28.0898C16.1815 28.2228 16.196 28.3662 16.2615 28.4886C16.3269 28.6111 16.438 28.7028 16.5706 28.7439C16.5846 28.748 17.9714 29.2277 18.2117 31.7111C18.4561 34.2366 21.5327 36.2769 22.4816 38.2201C22.512 38.2823 22.5543 38.338 22.6062 38.3838C22.6581 38.4297 22.7185 38.4649 22.784 38.4874C22.8495 38.5099 22.9188 38.5193 22.9879 38.515C23.057 38.5108 23.1246 38.4929 23.1868 38.4625C23.2491 38.4322 23.3047 38.3898 23.3506 38.3379C23.3964 38.2861 23.4316 38.2256 23.4541 38.1601C23.4767 38.0947 23.4861 38.0254 23.4818 37.9562C23.4775 37.8871 23.4597 37.8195 23.4293 37.7573C22.4139 35.6785 19.4604 33.6654 19.2613 31.6095C18.9496 28.3868 16.9559 27.7581 16.8712 27.7329ZM35.2405 37.883L39.1525 37.886C39.2923 37.8861 39.4265 37.8306 39.5254 37.7317C39.6244 37.6329 39.68 37.4988 39.68 37.3589C39.6801 37.2191 39.6246 37.0849 39.5257 36.986C39.4269 36.887 39.2928 36.8314 39.1529 36.8314L35.2413 36.8283C35.1721 36.8282 35.1035 36.8418 35.0395 36.8682C34.9755 36.8947 34.9173 36.9335 34.8683 36.9824C34.8193 37.0314 34.7804 37.0895 34.7539 37.1534C34.7273 37.2174 34.7136 37.2859 34.7136 37.3552C34.7135 37.4244 34.7271 37.493 34.7536 37.557C34.78 37.621 34.8188 37.6792 34.8677 37.7282C34.9167 37.7772 34.9748 37.8161 35.0387 37.8426C35.1027 37.8692 35.1712 37.8829 35.2405 37.883ZM35.2416 36.5537L39.1535 36.557C39.2933 36.5571 39.4275 36.5015 39.5264 36.4027C39.6253 36.3038 39.681 36.1697 39.681 36.0299C39.6811 35.89 39.6256 35.7559 39.5267 35.6569C39.4278 35.558 39.2937 35.5024 39.1539 35.5023L35.2425 35.499C35.1026 35.4989 34.9684 35.5543 34.8695 35.6532C34.7705 35.752 34.7148 35.8861 34.7147 36.0259C34.7146 36.1658 34.77 36.3 34.8689 36.3989C34.9677 36.4979 35.1018 36.5536 35.2416 36.5537Z" fill="black"/>
<path d="M44.4717 43.9442H43.0607L43.0661 37.5145C43.4289 37.7501 43.8161 37.7154 43.7458 37.7154C44.8509 37.7154 45.4196 36.3733 44.6375 35.5816L41.2807 32.1826C41.1824 32.0831 41.0486 32.0267 40.9087 32.0259C40.7689 32.025 40.6344 32.0797 40.5349 32.178C40.4354 32.2763 40.379 32.4101 40.3782 32.55C40.3773 32.6898 40.432 32.8243 40.5303 32.9238L43.8872 36.3228C43.9241 36.3602 43.9446 36.4108 43.9444 36.4633C43.9441 36.5159 43.923 36.5662 43.8857 36.6032C43.8484 36.6402 43.798 36.6608 43.7456 36.6606C43.7193 36.6606 43.6934 36.6554 43.6692 36.6453C43.645 36.6352 43.6231 36.6203 43.6047 36.6016L37.5771 30.4984C37.3904 30.3093 37.1316 30.3417 37.2019 30.3417C36.8909 30.3417 37.3462 29.9742 30.7897 36.5911C30.6066 36.7762 30.3222 36.4988 30.5076 36.3116L37.0616 29.6975C37.099 29.6599 37.1498 29.6387 37.2029 29.6385C37.3181 29.6386 37.1671 29.5183 39.3251 31.7034C39.3737 31.7527 39.4316 31.7919 39.4954 31.8188C39.5593 31.8457 39.6278 31.8598 39.697 31.8602C39.7663 31.8606 39.8349 31.8474 39.8991 31.8213C39.9632 31.7952 40.0216 31.7567 40.0708 31.708C40.1703 31.6097 40.2267 31.4759 40.2275 31.3361C40.2284 31.1962 40.1737 31.0618 40.0754 30.9623L38.0941 28.9561C37.6762 28.5337 37.1322 28.5838 37.2031 28.5838C36.8709 28.5838 36.5463 28.7191 36.3123 28.955L29.7583 35.5693C28.9804 36.3542 29.5305 37.7047 30.6543 37.7047C30.8929 37.7039 31.1263 37.6345 31.3266 37.5048L31.3238 40.8171C29.8814 40.0953 28.3375 39.6943 26.7267 39.6213C26.6388 35.1369 21.8004 33.3218 21.6206 30.5238C21.542 29.3001 21.2153 28.3024 20.6219 27.4736C20.5816 27.4173 20.5305 27.3695 20.4717 27.3329C20.413 27.2963 20.3475 27.2717 20.2792 27.2604C20.2109 27.2491 20.141 27.2513 20.0735 27.267C20.0061 27.2828 19.9424 27.3116 19.8861 27.3519C19.7724 27.4334 19.6957 27.5566 19.6728 27.6946C19.65 27.8326 19.6829 27.974 19.7643 28.0877C20.2461 28.7605 20.5015 29.5562 20.568 30.5913C20.7846 33.963 25.5675 35.5956 25.6716 39.6195C24.1542 39.6882 22.635 40.0642 21.2609 40.716C18.6002 37.1518 14.2134 35.5208 10.0545 36.2635V17.955C10.2852 17.9451 10.5926 17.9551 10.9233 18.0282C11.8332 18.2292 12.4849 18.8066 12.86 19.7445C14.4004 23.5953 15.0312 24.5239 17.5875 26.2355C17.959 26.4841 18.3099 26.719 18.6377 26.9699C18.6927 27.012 18.7554 27.0429 18.8223 27.0608C18.8893 27.0786 18.959 27.0831 19.0277 27.074C19.0963 27.0649 19.1625 27.0424 19.2225 27.0077C19.2824 26.973 19.3349 26.9269 19.377 26.8719C19.4192 26.8169 19.45 26.7542 19.4679 26.6873C19.4858 26.6204 19.4903 26.5506 19.4812 26.4819C19.4721 26.4133 19.4495 26.3471 19.4148 26.2872C19.3802 26.2272 19.334 26.1747 19.279 26.1326C18.6632 25.6608 17.9826 25.2495 17.3274 24.7779C15.5587 23.5044 14.915 22.0418 13.8394 19.3527C13.2009 17.7565 12.0249 17.1913 11.1509 16.9982C10.2257 16.7938 9.4455 16.9624 9.4128 16.9697C9.29571 16.9958 9.191 17.061 9.11596 17.1546C9.04091 17.2482 9.00001 17.3645 9 17.4845V43.0954C9 44.1451 9.85387 44.9989 10.9034 44.9989H44.4717C44.763 44.9989 44.999 44.7628 44.999 44.4715C44.999 44.4023 44.9854 44.3337 44.9589 44.2697C44.9324 44.2057 44.8936 44.1476 44.8446 44.0987C44.7956 44.0497 44.7375 44.0109 44.6735 43.9844C44.6096 43.9579 44.541 43.9442 44.4717 43.9442ZM42.0121 36.4902L42.0059 43.9437L39.674 43.9419L39.6752 42.2097C39.6753 42.1405 39.6617 42.0719 39.6353 42.0079C39.6088 41.9439 39.57 41.8857 39.5211 41.8367C39.4722 41.7877 39.4141 41.7488 39.3501 41.7222C39.2861 41.6957 39.2176 41.682 39.1483 41.6819C39.0791 41.6819 39.0105 41.6955 38.9465 41.7219C38.8825 41.7484 38.8243 41.7872 38.7753 41.8361C38.7263 41.885 38.6874 41.9431 38.6609 42.0071C38.6343 42.071 38.6206 42.1396 38.6206 42.2089L38.6193 43.9409L35.7626 43.9385C35.7662 39.5999 35.7227 39.8154 35.876 39.6624C35.9108 39.6275 35.9521 39.5998 35.9977 39.581C36.0433 39.5622 36.0921 39.5526 36.1414 39.5527C38.4311 39.5546 38.3665 39.5179 38.5128 39.6645C38.6542 39.806 38.6225 39.9066 38.622 40.5686C38.6218 40.7085 38.6773 40.8427 38.7761 40.9416C38.8749 41.0406 39.009 41.0963 39.1488 41.0965C39.2887 41.0966 39.4229 41.0411 39.5218 40.9423C39.6208 40.8435 39.6765 40.7095 39.6766 40.5696L39.6772 39.9307C39.6779 39.1404 39.0389 38.5002 38.2484 38.4997L36.1409 38.4981C35.3517 38.4981 34.7118 39.1362 34.7111 39.9267L34.7082 43.387C34.0158 42.6241 33.2129 41.951 32.3782 41.4164L32.3822 36.4824L37.2012 31.619L42.0121 36.4902ZM10.0548 43.0955V37.3369C15.1759 36.3483 20.0982 39.2987 21.8324 43.9442H10.9034C10.4355 43.9442 10.0548 43.5634 10.0548 43.0955ZM22.9524 43.9442C22.6959 43.1775 22.326 42.3621 21.8608 41.6016C25.8549 39.7879 30.654 40.6176 33.7877 43.9442H22.9524Z" fill="black"/>
<path d="M17.3756 23.556C18.2065 24.1988 19.5245 24.6593 20.5352 24.0908C21.8864 23.3308 21.4063 22.6916 21.7327 22.0388C21.8788 21.7468 21.9076 21.4736 21.8185 21.2268C21.6768 20.8347 21.3149 20.6757 20.9957 20.5354C20.5819 20.3536 20.4103 20.2528 20.3786 19.9835C20.3273 19.5474 20.0386 19.2118 19.5865 19.0624C18.7797 18.7959 17.5478 19.156 16.8967 19.8482C16.4147 20.3607 16.2828 21.0163 16.5347 21.647C17.2683 23.4837 17.2242 23.4387 17.3756 23.556ZM17.9656 20.332C18.5555 19.9709 19.2292 19.9846 19.3293 20.0973C19.3293 20.0973 19.3302 20.1001 19.331 20.1067C19.4533 21.1464 20.3853 21.397 20.7757 21.595C20.5926 21.9729 20.5615 22.2806 20.5388 22.5068C20.5082 22.8097 20.499 22.9011 20.0182 23.1716C19.3674 23.5376 18.4427 23.0023 18.1297 22.7967L17.5141 21.2558C17.3761 20.9107 17.5281 20.5999 17.9656 20.332ZM25.9999 25.9119C26.2072 26.0407 26.4357 26.102 26.6728 26.0401C27.2552 25.8888 27.3094 25.1645 27.5556 25.1586C28.6778 25.131 28.7546 23.4168 27.9876 22.5484C27.6281 22.1413 27.1323 21.9936 26.6271 22.1429L25.4552 22.4895C25.365 22.5162 25.2836 22.5666 25.2193 22.6353C25.1752 22.6826 24.1427 23.8068 24.6336 24.9062C25.0902 25.9293 25.6502 25.6944 25.9999 25.9119ZM25.9064 23.4561L26.9263 23.1545C26.9916 23.1352 27.0903 23.1058 27.2236 23.2789C27.4275 23.5438 27.4643 23.9424 27.4259 24.1107C26.8079 24.1732 26.5335 24.6466 26.3814 24.9203C25.7808 24.6353 25.7984 24.9283 25.5966 24.4764C25.4521 24.1526 25.7259 23.6908 25.9064 23.4561ZM26.2717 28.5607C24.5462 29.0711 24.5881 29.0335 24.4574 29.1734C24.4013 29.2334 23.0896 30.6613 23.7018 32.0325C24.2808 33.329 24.9369 32.9738 25.4716 33.3062C25.7088 33.4536 25.9688 33.5265 26.2355 33.4572C26.9631 33.2682 26.9581 32.2765 27.466 32.264C29.4043 32.2163 28.5792 27.8786 26.2717 28.5607ZM27.4238 31.21C26.4911 31.2419 26.1696 32.0179 25.9612 32.3701C25.6468 32.1892 25.382 32.1375 25.1851 32.0991C24.9275 32.0487 24.8583 32.0352 24.6651 31.6025C24.4042 31.0182 24.9316 30.2632 25.1446 29.994L26.5709 29.5722C27.3459 29.3428 27.6558 30.8969 27.4238 31.21ZM30.7122 27.5356C30.809 27.069 30.2329 26.9323 30.2167 26.6004C30.2008 26.2684 29.7948 26.0345 29.3887 26.2502C28.9826 26.4659 28.9754 27.6342 29.8325 27.7782C29.8324 27.7782 30.6155 28.0024 30.7122 27.5356ZM15.2921 18.099C15.2921 18.099 16.0752 18.3232 16.1719 17.8565C16.2688 17.3898 15.6926 17.2531 15.6764 16.9212C15.6605 16.5893 15.2546 16.3554 14.8484 16.571C14.4421 16.7868 14.435 17.955 15.2921 18.099ZM27.4594 35.3872C27.4435 35.0553 27.0375 34.8214 26.6314 35.0371C26.2253 35.2528 26.2181 36.421 27.0752 36.565C27.0752 36.565 27.8583 36.7893 27.9551 36.3225C28.0517 35.8558 27.4756 35.719 27.4594 35.3872ZM30.4722 30.7917C30.6862 30.8893 30.965 30.7096 30.9609 30.3842C30.9567 30.0587 30.2241 29.6756 29.8556 30.1682C29.8556 30.1682 29.4607 30.5883 29.7231 30.8004C29.9853 31.0125 30.2581 30.6943 30.4722 30.7917ZM18.7885 15.5632H21.4356C21.5683 15.5632 21.6961 15.5132 21.7935 15.4232C21.891 15.3331 21.9509 15.2097 21.9613 15.0774C22.0571 13.8647 23.5387 13.2863 24.4279 14.1463C24.7886 14.4949 25.388 14.1874 25.3165 13.6918C25.1782 12.7316 25.9265 11.882 26.8838 11.882C27.8464 11.882 28.6002 12.7423 28.4484 13.7136C28.3792 14.1542 28.8568 14.4765 29.2393 14.2483C30.2228 13.6624 31.5044 14.1264 31.8843 15.2103C31.9205 15.3134 31.9878 15.4028 32.0769 15.466C32.1661 15.5293 32.2727 15.5632 32.382 15.5633H38.9758C39.2671 15.5633 39.5032 15.3272 39.5032 15.0359C39.5032 14.7446 39.2671 14.5086 38.9758 14.5086H32.7288C32.1303 13.3331 30.792 12.7011 29.4848 13.021C29.2726 11.7772 28.1869 10.8274 26.8837 10.8274C25.6413 10.8274 24.5968 11.6905 24.3179 12.8485C22.9314 12.3142 21.3983 13.1049 20.9973 14.5086H18.7884C18.7187 14.5078 18.6494 14.5208 18.5847 14.547C18.5201 14.5731 18.4612 14.6118 18.4116 14.6609C18.362 14.7099 18.3226 14.7683 18.2957 14.8327C18.2688 14.8971 18.255 14.9662 18.255 15.0359C18.255 15.1057 18.2689 15.1747 18.2958 15.2391C18.3226 15.3035 18.362 15.3619 18.4117 15.4109C18.4613 15.46 18.5201 15.4987 18.5848 15.5248C18.6495 15.551 18.7187 15.564 18.7885 15.5632ZM38.6118 18.4664H36.3242C36.255 18.4664 36.1864 18.48 36.1224 18.5065C36.0584 18.533 36.0003 18.5719 35.9513 18.6208C35.9023 18.6698 35.8635 18.7279 35.837 18.7919C35.8105 18.8559 35.7969 18.9245 35.7969 18.9937C35.7969 19.285 36.0329 19.5211 36.3242 19.5211H39.0498C39.1825 19.5211 39.3103 19.4711 39.4077 19.381C39.5052 19.291 39.5651 19.1675 39.5755 19.0352C39.6706 17.8305 41.1427 17.2559 42.026 18.1102C42.105 18.1867 42.206 18.2367 42.3149 18.2529C42.4237 18.2692 42.5349 18.251 42.6329 18.2009C42.7308 18.1508 42.8107 18.0713 42.8612 17.9735C42.9117 17.8758 42.9303 17.7647 42.9145 17.6558C42.7766 16.7036 43.5194 15.8575 44.4717 15.8575C44.763 15.8575 44.9991 15.6215 44.9991 15.3302C44.9991 15.0389 44.763 14.8028 44.4717 14.8028C43.2351 14.8028 42.1952 15.6612 41.9165 16.8135C40.5186 16.2766 39.0066 17.0881 38.6118 18.4664ZM31.801 10.465C32.6909 9.60434 34.1718 10.184 34.2676 11.3961C34.2781 11.5284 34.338 11.6518 34.4355 11.7419C34.5329 11.8319 34.6607 11.8819 34.7934 11.8819H38.5774C38.8687 11.8819 39.1047 11.6459 39.1047 11.3546C39.1047 11.0633 38.8687 10.8272 38.5774 10.8272H35.2314C34.7133 9.01365 32.4362 8.3833 31.0677 9.70672C30.9672 9.80396 30.9094 9.93715 30.9071 10.077C30.9047 10.2168 30.958 10.3519 31.0552 10.4525C31.1525 10.553 31.2857 10.6107 31.4255 10.6131C31.5654 10.6154 31.7004 10.5621 31.801 10.465ZM40.3979 11.882H41.4202C41.7115 11.882 41.9476 11.6459 41.9476 11.3546C41.9476 11.0633 41.7115 10.8273 41.4202 10.8273H40.3979C40.258 10.8273 40.1239 10.8828 40.025 10.9817C39.9261 11.0806 39.8706 11.2148 39.8706 11.3546C39.8706 11.4945 39.9261 11.6286 40.025 11.7275C40.1239 11.8264 40.258 11.882 40.3979 11.882Z" fill="black"/>
</g>
<defs>
<clipPath id="clip0_40000107_992">
<rect width="36" height="36" fill="white" transform="translate(9 9)"/>
</clipPath>
</defs>
</svg>
