<svg width="16" height="16" viewBox="0 0 16 16" fill="none" xmlns="http://www.w3.org/2000/svg">
<path d="M6.57472 0.219741C6.70935 0.394888 6.729 0.632609 6.6249 0.827466C6.18695 1.6477 5.93844 2.58457 5.93844 3.58116C5.93844 6.81505 8.55997 9.4366 11.7938 9.4366C12.7904 9.4366 13.7273 9.18805 14.5475 8.75012C14.7424 8.64602 14.9801 8.66567 15.1552 8.8003C15.3304 8.93492 15.4105 9.15955 15.3601 9.37465C14.5542 12.8137 11.4682 15.375 7.78267 15.375C3.48442 15.375 0 11.8906 0 7.59235C0 3.90682 2.56129 0.820859 6.00037 0.0148636C6.21547 -0.0355439 6.4401 0.044601 6.57472 0.219741Z" fill="#D777FF"/>
</svg>
