<svg width="20" height="20" viewBox="0 0 20 20" fill="none" xmlns="http://www.w3.org/2000/svg">
<path opacity="0.4" d="M16.4 14V9.2C16.4 7.6915 16.4 6.93726 15.9314 6.46863C15.4627 6 14.7085 6 13.2 6H6.79652L6.8 10.8C6.8 12.3085 6.8 13.0627 6.33137 13.5314C5.86274 14 5.1085 14 3.6 14C2.71634 14 2 14.7163 2 15.6C2 16.4837 2.71634 17.2 3.6 17.2H4.4H6.8H13.2C14.7085 17.2 15.4627 17.2 15.9314 16.7314C16.4 16.2627 16.4 15.5085 16.4 14Z" fill="#DCDCDC"/>
<path d="M4.4 17.2001H13.2C14.7085 17.2001 15.4627 17.2001 15.9314 16.7315C16.4 16.2628 16.4 15.5086 16.4 14.0001V9.2001C16.4 7.6916 16.4 6.93735 15.9314 6.46873C15.4627 6.0001 14.7085 6.0001 13.2 6.0001H6.8M6.8 17.2001H3.6C2.71634 17.2001 2 16.4838 2 15.6001M2 15.6001C2 14.7164 2.71634 14.0001 3.6 14.0001C5.1085 14.0001 5.86274 14.0001 6.33137 13.5315C6.8 13.0628 6.8 12.3086 6.8 10.8001V6.8001C6.8 5.2916 6.8 4.53735 6.33137 4.06873C5.86274 3.6001 5.1085 3.6001 3.6 3.6001C2.71634 3.6001 2 4.31644 2 5.2001V15.6001Z" stroke="#DCDCDC" stroke-width="1.44" stroke-linecap="round"/>
<path d="M9.19922 13.4855H9.46402C9.69594 13.4855 9.81186 13.4855 9.90962 13.5084C10.0074 13.5315 10.1934 13.6245 10.5654 13.8107C11.8475 14.4524 12.7026 13.33 13.4422 12.4218C13.8135 11.9657 13.9992 11.7377 13.9992 11.5999C13.9992 11.4621 13.8135 11.2341 13.4421 10.778C12.7026 9.86987 11.8475 8.74755 10.5654 9.38923C10.1934 9.57539 10.0074 9.66843 9.90962 9.69147C9.81186 9.71443 9.69594 9.71443 9.46402 9.71443H9.19922" stroke="#DCDCDC" stroke-width="1.44" stroke-linecap="round" stroke-linejoin="round"/>
<path d="M16.4004 13.2H18.0004" stroke="#DCDCDC" stroke-width="1.44" stroke-linecap="round" stroke-linejoin="round"/>
<path d="M16.4004 16.3999H18.0004" stroke="#DCDCDC" stroke-width="1.44" stroke-linecap="round" stroke-linejoin="round"/>
<path d="M16.4004 10H18.0004" stroke="#DCDCDC" stroke-width="1.44" stroke-linecap="round" stroke-linejoin="round"/>
<path d="M16.4004 6.80005H18.0004" stroke="#DCDCDC" stroke-width="1.44" stroke-linecap="round" stroke-linejoin="round"/>
</svg>
