<svg width="54" height="54" viewBox="0 0 54 54" fill="none" xmlns="http://www.w3.org/2000/svg">
<rect width="54" height="54" rx="13" fill="white"/>
<g clip-path="url(#clip0_40000107_988)">
<path d="M27.7961 37.5515L25.2635 40.0828C25.1708 40.1751 25.1187 40.3005 25.1185 40.4314C25.1183 40.5622 25.1701 40.6878 25.2625 40.7804C25.3549 40.873 25.4803 40.9252 25.6111 40.9254C25.7419 40.9256 25.8675 40.8738 25.9601 40.7814L28.4914 38.2487C28.581 38.1559 28.6306 38.0315 28.6294 37.9025C28.6283 37.7734 28.5765 37.65 28.4852 37.5588C28.394 37.4675 28.2705 37.4158 28.1415 37.4147C28.0124 37.4136 27.8881 37.4632 27.7953 37.5529L27.7961 37.5515ZM31.9392 37.4581L29.3132 40.0842C29.2207 40.1766 29.1688 40.3019 29.1687 40.4327C29.1687 40.5634 29.2206 40.6888 29.313 40.7812C29.4055 40.8737 29.5308 40.9257 29.6616 40.9257C29.7923 40.9257 29.9177 40.8738 30.0101 40.7814L32.6362 38.1553C32.7284 38.0631 32.7803 37.9379 32.7803 37.8074C32.7803 37.677 32.7284 37.5518 32.6362 37.4595C32.5439 37.3673 32.4187 37.3154 32.2882 37.3154C32.1578 37.3154 32.0326 37.3673 31.9403 37.4595L31.9392 37.4581ZM35.8008 37.646L33.3626 40.0842C33.3168 40.13 33.2805 40.1843 33.2558 40.2442C33.231 40.304 33.2183 40.3681 33.2183 40.4329C33.2183 40.4976 33.231 40.5617 33.2558 40.6216C33.2806 40.6814 33.317 40.7357 33.3628 40.7815C33.4086 40.8273 33.4629 40.8636 33.5228 40.8884C33.5826 40.9131 33.6467 40.9259 33.7115 40.9259C33.7762 40.9259 33.8403 40.9131 33.9002 40.8883C33.96 40.8635 34.0143 40.8272 34.0601 40.7814L36.4983 38.3432C36.5879 38.2504 36.6375 38.126 36.6364 37.997C36.6352 37.8679 36.5834 37.7445 36.4921 37.6533C36.4009 37.562 36.2774 37.5103 36.1484 37.5092C36.0193 37.5081 35.895 37.5577 35.8022 37.6474L35.8008 37.646ZM40.4288 37.7636C40.3831 37.7178 40.3288 37.6815 40.2691 37.6568C40.2094 37.632 40.1454 37.6193 40.0807 37.6193C40.0161 37.6193 39.952 37.632 39.8923 37.6568C39.8326 37.6815 39.7783 37.7178 39.7327 37.7636L37.4123 40.0842C37.3666 40.1299 37.3302 40.1841 37.3054 40.2438C37.2806 40.3036 37.2678 40.3676 37.2677 40.4323C37.2677 40.497 37.2803 40.561 37.305 40.6208C37.3297 40.6806 37.366 40.7349 37.4116 40.7807C37.4573 40.8265 37.5116 40.8628 37.5713 40.8876C37.631 40.9124 37.6951 40.9252 37.7598 40.9253C37.8244 40.9253 37.8885 40.9127 37.9483 40.888C38.008 40.8633 38.0624 40.8271 38.1082 40.7814L40.4288 38.4608C40.4747 38.4151 40.5112 38.3608 40.536 38.301C40.5609 38.2411 40.5737 38.177 40.5737 38.1122C40.5737 38.0474 40.5609 37.9832 40.536 37.9234C40.5112 37.8636 40.4747 37.8093 40.4288 37.7636ZM27.1245 42.2982L25.2635 44.1592C25.2165 44.2046 25.179 44.2589 25.1532 44.319C25.1274 44.379 25.1139 44.4436 25.1133 44.509C25.1127 44.5743 25.1252 44.6391 25.15 44.6996C25.1747 44.7601 25.2113 44.815 25.2575 44.8612C25.3037 44.9075 25.3587 44.944 25.4192 44.9687C25.4797 44.9935 25.5445 45.0059 25.6098 45.0053C25.6752 45.0047 25.7398 44.9911 25.7998 44.9653C25.8599 44.9395 25.9142 44.902 25.9596 44.855L27.8206 42.994C27.8676 42.9486 27.9051 42.8942 27.9309 42.8342C27.9566 42.7741 27.9702 42.7095 27.9708 42.6442C27.9713 42.5788 27.9589 42.514 27.9341 42.4536C27.9093 42.3931 27.8728 42.3381 27.8266 42.2919C27.7803 42.2457 27.7254 42.2092 27.6649 42.1844C27.6044 42.1597 27.5396 42.1473 27.4742 42.1479C27.4089 42.1484 27.3443 42.162 27.2842 42.1878C27.2242 42.2136 27.1699 42.2511 27.1245 42.2982ZM31.1742 42.2982L29.3132 44.1592C29.2675 44.2049 29.2313 44.2591 29.2065 44.3188C29.1818 44.3785 29.1691 44.4425 29.1691 44.5071C29.1691 44.5717 29.1818 44.6357 29.2065 44.6954C29.2313 44.7551 29.2675 44.8093 29.3132 44.855C29.3589 44.9007 29.4131 44.9369 29.4728 44.9617C29.5325 44.9864 29.5965 44.9991 29.6611 44.9991C29.7257 44.9991 29.7897 44.9864 29.8494 44.9617C29.9091 44.9369 29.9633 44.9007 30.009 44.855L31.87 42.994C31.9623 42.9017 32.0141 42.7766 32.0141 42.6461C32.0141 42.5156 31.9623 42.3904 31.87 42.2982C31.7778 42.2059 31.6526 42.1541 31.5221 42.1541C31.3916 42.1541 31.2665 42.2059 31.1742 42.2982ZM35.2237 42.2982L33.3626 44.1592C33.3156 44.2046 33.2781 44.2589 33.2524 44.319C33.2266 44.379 33.213 44.4436 33.2125 44.509C33.2119 44.5743 33.2244 44.6391 33.2491 44.6996C33.2739 44.7601 33.3104 44.815 33.3567 44.8612C33.4029 44.9075 33.4578 44.944 33.5183 44.9687C33.5788 44.9935 33.6436 45.0059 33.709 45.0053C33.7744 45.0047 33.8389 44.9911 33.899 44.9653C33.959 44.9395 34.0133 44.902 34.0587 44.855L35.9197 42.994C35.9667 42.9486 36.0042 42.8942 36.03 42.8342C36.0558 42.7741 36.0694 42.7095 36.0699 42.6442C36.0705 42.5788 36.058 42.514 36.0332 42.4536C36.0085 42.3931 35.9719 42.3381 35.9257 42.2919C35.8795 42.2457 35.8245 42.2092 35.764 42.1844C35.7035 42.1597 35.6387 42.1473 35.5734 42.1479C35.508 42.1484 35.4434 42.162 35.3834 42.1878C35.3234 42.2136 35.269 42.2511 35.2237 42.2982ZM39.2734 42.2982L37.4123 44.1592C37.3667 44.2049 37.3304 44.2591 37.3057 44.3188C37.281 44.3785 37.2682 44.4425 37.2682 44.5071C37.2682 44.5717 37.281 44.6357 37.3057 44.6954C37.3304 44.7551 37.3667 44.8093 37.4123 44.855C37.458 44.9007 37.5123 44.9369 37.572 44.9617C37.6317 44.9864 37.6956 44.9991 37.7602 44.9991C37.8249 44.9991 37.8888 44.9864 37.9485 44.9617C38.0082 44.9369 38.0625 44.9007 38.1082 44.855L39.9692 42.994C40.0149 42.9483 40.0511 42.894 40.0758 42.8344C40.1006 42.7747 40.1133 42.7107 40.1133 42.6461C40.1133 42.5815 40.1006 42.5175 40.0758 42.4578C40.0511 42.3981 40.0149 42.3438 39.9692 42.2982C39.9235 42.2525 39.8693 42.2162 39.8096 42.1915C39.7499 42.1668 39.6859 42.1541 39.6213 42.1541C39.5567 42.1541 39.4927 42.1668 39.433 42.1915C39.3733 42.2162 39.3191 42.2525 39.2734 42.2982Z" fill="#09607D"/>
<path d="M23.554 38.5706C23.1778 38.5744 22.8045 38.5035 22.4557 38.3621C22.107 38.2207 21.7898 38.0115 21.5224 37.7468C21.255 37.482 21.0427 37.1669 20.8978 36.8196C20.753 36.4723 20.6784 36.0997 20.6784 35.7234C20.6784 35.3471 20.753 34.9745 20.8978 34.6272C21.0427 34.2799 21.255 33.9648 21.5224 33.7C21.7898 33.4353 22.107 33.2261 22.4557 33.0847C22.8045 32.9433 23.1778 32.8724 23.554 32.8762C23.6224 32.8762 23.6893 32.8815 23.7563 32.8863C23.9744 32.1958 24.3608 31.5704 24.8807 31.0664C25.4006 30.5623 26.0377 30.1955 26.7346 29.9988C27.4315 29.8022 28.1664 29.7819 28.8731 29.9398C29.5798 30.0977 30.2361 30.4289 30.783 30.9035C31.0557 30.2167 31.4617 29.5907 31.9776 29.0617C32.4934 28.5326 33.109 28.111 33.7887 27.8211C34.4684 27.5313 35.1988 27.3789 35.9377 27.3729C36.6767 27.3668 37.4095 27.5072 38.0938 27.7858C38.877 24.8498 38.721 21.7422 37.6479 18.8994C36.5747 16.0565 34.6382 13.6211 32.1102 11.935C29.5823 10.2489 26.5897 9.39684 23.5528 9.49836C20.5158 9.59987 17.5868 10.6499 15.1771 12.501C12.7674 14.3522 10.9978 16.9115 10.1169 19.8196C9.23596 22.7278 9.28787 25.8389 10.2653 28.716C11.2428 31.5932 13.0967 34.092 15.5669 35.8617C18.0371 37.6314 20.9994 38.5832 24.0381 38.5833C24.2023 38.5833 24.3649 38.5763 24.528 38.5706H23.554Z" fill="#0D91BD"/>
<path d="M20.706 35.7235C20.706 34.9683 21.006 34.2441 21.5399 33.7101C22.0739 33.1761 22.7982 32.8761 23.5533 32.8761C23.6217 32.8761 23.6886 32.8814 23.7556 32.8862C23.9737 32.1957 24.3601 31.5703 24.88 31.0663C25.3999 30.5622 26.037 30.1954 26.7339 29.9987C27.4308 29.8021 28.1657 29.7818 28.8724 29.9397C29.5791 30.0976 30.2354 30.4288 30.7823 30.9034C31.1965 29.8617 31.9139 28.9683 32.8415 28.3388C33.7692 27.7093 34.8644 27.3727 35.9854 27.3726C36.0785 27.3726 36.1694 27.3819 36.2613 27.3864C36.9248 24.9654 36.8545 22.4019 36.0593 20.0209C35.2641 17.6399 33.7798 15.5487 31.7946 14.0123C29.8095 12.4759 27.4128 11.5635 24.9085 11.3909C22.4042 11.2182 19.905 11.7931 17.7277 13.0425C15.5505 14.2919 13.7933 16.1597 12.6789 18.4091C11.5645 20.6584 11.143 23.188 11.468 25.6771C11.793 28.1663 12.8497 30.5029 14.5043 32.3907C16.1588 34.2785 18.3366 35.6326 20.7617 36.2812C20.7249 36.0976 20.7062 35.9107 20.706 35.7235Z" fill="#EBE1DC"/>
<path d="M24.0382 16.4404C23.9736 16.4405 23.9096 16.4278 23.8499 16.403C23.7901 16.3783 23.7358 16.3421 23.6901 16.2964C23.6444 16.2506 23.6082 16.1964 23.5835 16.1366C23.5587 16.0769 23.546 16.0129 23.5461 15.9482V13.6982C23.5461 13.5677 23.5979 13.4425 23.6902 13.3502C23.7825 13.2579 23.9077 13.2061 24.0382 13.2061C24.1688 13.2061 24.294 13.2579 24.3863 13.3502C24.4786 13.4425 24.5304 13.5677 24.5304 13.6982V15.9482C24.5304 16.0788 24.4786 16.204 24.3863 16.2963C24.294 16.3886 24.1688 16.4404 24.0382 16.4404ZM29.758 18.8097C29.6607 18.8097 29.5655 18.7808 29.4846 18.7268C29.4037 18.6727 29.3406 18.5959 29.3033 18.5059C29.266 18.416 29.2563 18.3171 29.2752 18.2216C29.2942 18.1261 29.341 18.0384 29.4098 17.9696L31.0003 16.3791C31.0926 16.2867 31.2178 16.2348 31.3484 16.2348C31.479 16.2347 31.6043 16.2865 31.6967 16.3788C31.7891 16.4711 31.841 16.5964 31.841 16.727C31.8411 16.8576 31.7893 16.9828 31.697 17.0752L30.1068 18.6654C30.0611 18.7113 30.0067 18.7477 29.9468 18.7724C29.887 18.7972 29.8228 18.8099 29.758 18.8097ZM16.728 31.8394C16.6307 31.8394 16.5356 31.8105 16.4547 31.7564C16.3738 31.7023 16.3107 31.6255 16.2735 31.5356C16.2363 31.4457 16.2265 31.3467 16.2455 31.2513C16.2645 31.1558 16.3113 31.0682 16.3801 30.9993L17.9703 29.4089C18.016 29.3632 18.0702 29.3269 18.13 29.3022C18.1897 29.2774 18.2537 29.2647 18.3183 29.2647C18.383 29.2647 18.447 29.2774 18.5067 29.3022C18.5664 29.3269 18.6207 29.3632 18.6664 29.4089C18.7121 29.4546 18.7483 29.5088 18.7731 29.5686C18.7978 29.6283 18.8105 29.6923 18.8105 29.7569C18.8105 29.8216 18.7978 29.8856 18.7731 29.9453C18.7483 30.005 18.7121 30.0593 18.6664 30.105L17.0762 31.6951C17.0305 31.741 16.9762 31.7773 16.9165 31.802C16.8567 31.8268 16.7927 31.8395 16.728 31.8394ZM34.3762 24.5295H32.1262C31.9956 24.5295 31.8704 24.4776 31.7781 24.3853C31.6858 24.293 31.634 24.1678 31.634 24.0373C31.634 23.9067 31.6858 23.7815 31.7781 23.6892C31.8704 23.5969 31.9956 23.5451 32.1262 23.5451H34.3762C34.5067 23.5451 34.6319 23.5969 34.7242 23.6892C34.8165 23.7815 34.8683 23.9067 34.8683 24.0373C34.8683 24.1678 34.8165 24.293 34.7242 24.3853C34.6319 24.4776 34.5067 24.5295 34.3762 24.5295ZM15.9492 24.5295H13.6992C13.5687 24.5295 13.4435 24.4776 13.3512 24.3853C13.2589 24.293 13.207 24.1678 13.207 24.0373C13.207 23.9067 13.2589 23.7815 13.3512 23.6892C13.4435 23.5969 13.5687 23.5451 13.6992 23.5451H15.9492C16.0798 23.5451 16.2049 23.5969 16.2972 23.6892C16.3896 23.7815 16.4414 23.9067 16.4414 24.0373C16.4414 24.1678 16.3896 24.293 16.2972 24.3853C16.2049 24.4776 16.0798 24.5295 15.9492 24.5295ZM18.3185 18.8097C18.2538 18.8098 18.1897 18.7971 18.13 18.7723C18.0702 18.7475 18.0159 18.7112 17.9703 18.6654L16.3801 17.0752C16.2878 16.9829 16.2359 16.8577 16.2359 16.7272C16.2359 16.5966 16.2878 16.4714 16.3801 16.3791C16.4724 16.2868 16.5976 16.235 16.7281 16.235C16.8587 16.235 16.9839 16.2868 17.0762 16.3791L18.6664 17.9696C18.7352 18.0384 18.782 18.1261 18.801 18.2215C18.8199 18.317 18.8102 18.4159 18.773 18.5058C18.7357 18.5957 18.6727 18.6726 18.5918 18.7267C18.5109 18.7807 18.4158 18.8096 18.3185 18.8097Z" fill="#0D91BD"/>
<path d="M25.0806 24.3263L24.04 18.8245L22.9994 24.3263C22.616 24.5545 22.318 24.9022 22.1514 25.3161C21.9847 25.73 21.9585 26.1872 22.0769 26.6174C22.1952 27.0476 22.4515 27.4271 22.8063 27.6975C23.1612 27.968 23.5951 28.1145 24.0413 28.1145C24.4875 28.1145 24.9213 27.968 25.2762 27.6975C25.6311 27.4271 25.8874 27.0476 26.0057 26.6174C26.124 26.1872 26.0979 25.73 25.9312 25.3161C25.7645 24.9022 25.4666 24.5545 25.0832 24.3263H25.0806Z" fill="#FFB655"/>
<path d="M41.6766 32.8762C41.6448 32.8762 41.6139 32.8798 41.5824 32.8809C41.5631 31.5858 41.0953 30.3375 40.2586 29.3487C39.4219 28.36 38.2682 27.692 36.9941 27.4587C35.7201 27.2254 34.4045 27.4413 33.2718 28.0694C32.139 28.6976 31.2592 29.6992 30.7824 30.9035C30.2355 30.4288 29.5792 30.0976 28.8724 29.9396C28.1657 29.7816 27.4308 29.8019 26.7339 29.9986C26.037 30.1952 25.3999 30.5621 24.88 31.0662C24.3601 31.5703 23.9737 32.1958 23.7556 32.8863C23.6887 32.8815 23.6218 32.8762 23.5534 32.8762C23.1771 32.8724 22.8038 32.9433 22.4551 33.0847C22.1064 33.2261 21.7891 33.4353 21.5217 33.7C21.2543 33.9648 21.0421 34.2799 20.8972 34.6272C20.7523 34.9745 20.6777 35.3471 20.6777 35.7234C20.6777 36.0997 20.7523 36.4723 20.8972 36.8196C21.0421 37.1669 21.2543 37.482 21.5217 37.7468C21.7891 38.0115 22.1064 38.2207 22.4551 38.3621C22.8038 38.5035 23.1771 38.5744 23.5534 38.5706H41.6763C42.0526 38.5744 42.4259 38.5035 42.7746 38.3621C43.1233 38.2207 43.4406 38.0115 43.708 37.7468C43.9754 37.482 44.1877 37.1669 44.3325 36.8196C44.4774 36.4723 44.552 36.0997 44.552 35.7234C44.552 35.3471 44.4774 34.9745 44.3325 34.6272C44.1877 34.2799 43.9754 33.9648 43.708 33.7C43.4406 33.4353 43.1233 33.2261 42.7746 33.0847C42.4259 32.9433 42.0529 32.8724 41.6766 32.8762Z" fill="#BEEBFA"/>
<path d="M39.3336 33.409C39.2045 33.409 39.0805 33.3583 38.9885 33.2676C38.8964 33.177 38.8437 33.0539 38.8417 32.9247C38.8264 32.1764 38.5193 31.4638 37.9858 30.9388C37.4524 30.4138 36.7349 30.1181 35.9865 30.1147C35.8559 30.1147 35.7308 30.0629 35.6385 29.9706C35.5462 29.8783 35.4943 29.7531 35.4943 29.6226C35.4943 29.492 35.5462 29.3668 35.6385 29.2745C35.7308 29.1822 35.8559 29.1304 35.9865 29.1304C36.9928 29.135 37.9575 29.5327 38.6747 30.2386C39.392 30.9446 39.8049 31.9028 39.8255 32.909C39.8276 33.0395 39.7777 33.1655 39.6869 33.2592C39.5961 33.353 39.4718 33.4069 39.3412 33.409H39.3336ZM25.5805 33.9541C25.5031 33.9542 25.4268 33.936 25.3578 33.901C25.2887 33.8661 25.2289 33.8153 25.1831 33.7529C25.1374 33.6905 25.107 33.6182 25.0944 33.5418C25.0819 33.4654 25.0875 33.3872 25.1108 33.3134C25.2983 32.7149 25.6725 32.1921 26.1786 31.8216C26.6847 31.4511 27.2961 31.2523 27.9233 31.2544C28.0539 31.2544 28.1791 31.3062 28.2714 31.3985C28.3637 31.4908 28.4155 31.616 28.4155 31.7466C28.4155 31.8771 28.3637 32.0023 28.2714 32.0946C28.1791 32.1869 28.0539 32.2387 27.9233 32.2387C27.5056 32.2373 27.0984 32.3697 26.7613 32.6165C26.4242 32.8632 26.175 33.2115 26.0502 33.6101C26.0186 33.7099 25.9561 33.7971 25.8716 33.8589C25.7872 33.9208 25.6852 33.9541 25.5805 33.9541Z" fill="#9EE2F8"/>
<path d="M23.5549 32.8762C23.6233 32.8762 23.6902 32.8815 23.7571 32.8863C23.8517 32.5896 23.978 32.304 24.1337 32.0344C24.1019 32.0344 24.0707 32.0386 24.0389 32.0386C23.1181 32.0392 22.204 31.8801 21.3375 31.5684L19.5547 33.3509C20.1127 33.6197 20.694 33.8374 21.2914 34.0012C21.5563 33.6517 21.8984 33.3682 22.2911 33.173C22.6838 32.9779 23.1164 32.8763 23.5549 32.8762Z" fill="#09607D"/>
</g>
<defs>
<clipPath id="clip0_40000107_988">
<rect width="36" height="36" fill="white" transform="translate(9 9)"/>
</clipPath>
</defs>
</svg>
